<?xml version="1.0" encoding="UTF-8"?> <!-- Generator: Adobe Illustrator 24.1.2, SVG Export Plug-In . SVG Version: 6.00 Build 0) --> <svg xmlns="http://www.w3.org/2000/svg" xmlns:xlink="http://www.w3.org/1999/xlink" version="1.1" id="Capa_1" x="0px" y="0px" viewBox="0 0 411.5 408.2" style="enable-background:new 0 0 411.5 408.2;" xml:space="preserve"> <style type="text/css"> .st0{fill:#010101;} .st1{fill:#020202;} </style> <g> <path class="st0" d="M128.2,132.2c12.2-19.6,24.2-38.8,36-58.1c1.8-2.9,3.7-4.2,7.2-4.1c8.7,0.3,17.3,0.3,26,0c4-0.1,4.8,1.3,4.8,5 c-0.1,64.7-0.1,129.5-0.1,194.2c0,19.7-0.1,39.3,0.1,59c0,3.9-1.2,5-5,4.9c-7.7-0.3-15.4-0.3-23.1,0c-3.7,0.1-4.6-1.2-4.5-4.7 c0.1-67.1,0.1-134.1,0.1-201.2c0-1.3,0-2.6,0-4c-0.2-0.1-0.5-0.2-0.7-0.3c-13.6,20.6-27.2,41.3-41.3,62.5 c-13.7-20.8-27.2-41.2-40.6-61.5c-0.2,0.1-0.5,0.2-0.7,0.2c0,1.4,0,2.9,0,4.3c0,66.1,0,132.2,0,198.3c0,6.2,0,6.2-6.1,6.2 c-7,0-14-0.2-21,0.1c-3.9,0.2-5.2-1-5.1-5c0.2-31.9,0.1-63.8,0.1-95.6c0-52.4,0.1-104.7-0.1-157.1c0-4.3,1.2-5.4,5.4-5.2 c8.5,0.3,17,0.3,25.6,0c3.4-0.1,5.2,1.2,6.9,3.9c11.5,18.7,23.1,37.3,34.7,55.9C127.1,130.5,127.6,131.2,128.2,132.2z"></path> <path class="st1" d="M229.1,98.6c0-20.1,0.1-40.1-0.1-60.2c0-3.9,1.1-5.4,5.1-5.3c7.5,0.3,15.1,0.2,22.7,0c3.6-0.1,4.7,1.2,4.7,4.8 c-0.1,37.1-0.1,74.2-0.1,111.3c0,5.9,0.6,11.8,2.5,17.4c4,11.9,12.5,18.4,24.8,19.7c21.3,2.1,35.2-9.9,35.4-31.3 c0.4-38.6,0.3-77.2,0.4-115.8c0-6,0-6.1,5.9-6.1c7.3,0,14.6,0.1,21.8,0c3.6-0.1,4.8,1.4,4.8,4.9c-0.1,37.6,0,75.3-0.1,112.9 c0,8.9-1.1,17.8-3.9,26.4c-5.8,18-17.6,30.1-35.7,35.6c-15.9,4.8-32.1,5-47.9,0.4c-23.6-6.8-35.6-23.7-39.3-47.3 c-0.8-5.3-1-10.7-1-16C229.1,132.9,229.1,115.8,229.1,98.6z"></path> <path class="st0" d="M230.8,307.4c0-20.9,0.1-41.8-0.1-62.7c0-4.1,1.3-5.1,5.2-5.1c21.2,0.2,42.3,0,63.5,0.1c8.1,0,16.1,1.2,23.8,4 c18.4,6.7,29.3,22.1,29.8,41.7c0.6,22.2-8.1,38.5-29,47.5c-3.1,1.3-1,2.4-0.2,3.4c8.7,10.6,17.5,21.1,26.3,31.7 c0.7,0.8,1.5,1.6,2.1,2.5c1.8,2.7,1,4.6-2.1,4.7c-9.6,0.1-19.2,0-28.9,0.1c-2.1,0-3.2-1.4-4.3-2.8c-8.8-10.2-17.7-20.3-26.4-30.5 c-1.7-2-3.4-2.7-6-2.7c-5.9,0.2-11.8,0.2-17.7,0c-2.9-0.1-4,0.5-3.9,3.7c0.3,9.1-0.1,18.1,0.2,27.2c0.1,3.7-0.9,5.2-4.8,5.1 c-7.7-0.2-15.4-0.2-23.1,0c-3.4,0.1-4.5-1.2-4.5-4.5C230.8,349.7,230.8,328.5,230.8,307.4z M263.1,290c0,6,0,12.1,0,18.1 c0,1.3-0.5,2.9,1.8,2.8c12.6-0.4,25.3,1,37.8-0.9c10.9-1.6,17.4-9.5,17.4-20.1c0-11.1-5.9-18.3-17.2-20.1 c-12.7-2-25.5-0.4-38.2-0.8c-2.1-0.1-1.6,1.4-1.6,2.5C263.1,277.6,263.1,283.8,263.1,290z"></path> </g> </svg> 